<svg xmlns="http://www.w3.org/2000/svg" viewBox="0 0 1600 1100" font-family="Segoe UI, Arial, sans-serif">
  <defs>
    <linearGradient id="sm-brief" x1="0" y1="0" x2="1" y2="1">
      <stop offset="0%" stop-color="#7C3AED"/>
      <stop offset="100%" stop-color="#6D28D9"/>
    </linearGradient>
    <linearGradient id="sm-orch" x1="0" y1="0" x2="1" y2="1">
      <stop offset="0%" stop-color="#3B82F6"/>
      <stop offset="100%" stop-color="#2563EB"/>
    </linearGradient>
    <linearGradient id="sm-craft" x1="0" y1="0" x2="1" y2="1">
      <stop offset="0%" stop-color="#0891B2"/>
      <stop offset="100%" stop-color="#0E7490"/>
    </linearGradient>
    <linearGradient id="sm-gate" x1="0" y1="0" x2="1" y2="1">
      <stop offset="0%" stop-color="#F59E0B"/>
      <stop offset="100%" stop-color="#D97706"/>
    </linearGradient>
    <linearGradient id="sm-meta" x1="0" y1="0" x2="1" y2="1">
      <stop offset="0%" stop-color="#059669"/>
      <stop offset="100%" stop-color="#047857"/>
    </linearGradient>
    <linearGradient id="sm-ui" x1="0" y1="0" x2="1" y2="1">
      <stop offset="0%" stop-color="#EC4899"/>
      <stop offset="100%" stop-color="#DB2777"/>
    </linearGradient>
    <filter id="sm-shadow" x="-5%" y="-5%" width="110%" height="110%">
      <feDropShadow dx="0" dy="3" stdDeviation="4" flood-color="#0F172A" flood-opacity="0.15"/>
    </filter>
    <marker id="sm-arrow" viewBox="0 0 10 10" refX="10" refY="5" markerWidth="6" markerHeight="6" orient="auto">
      <path d="M 0 0 L 10 5 L 0 10 z" fill="#64748B"/>
    </marker>
  </defs>

  <!-- Background -->
  <rect width="1600" height="1100" fill="#F8FAFC"/>

  <!-- Title -->
  <text x="800" y="40" fill="#0F172A" font-size="22" font-weight="700" text-anchor="middle">Composition Diagram → UI Surface Coverage Map</text>
  <text x="800" y="62" fill="#64748B" font-size="12" text-anchor="middle">Every diagram operation mapped to its corresponding UI surface(s)</text>


  <!-- LEFT COLUMN: Composition Diagram (Operations) -->
  <text x="300" y="100" fill="#0F172A" font-size="16" font-weight="700" text-anchor="middle">COMPOSITION DIAGRAM</text>
  <text x="300" y="118" fill="#64748B" font-size="10" text-anchor="middle">(Operations / Agents)</text>

  <!-- [Brief] -->
  <rect x="220" y="140" width="160" height="44" rx="22" fill="url(#sm-brief)" filter="url(#sm-shadow)"/>
  <text x="300" y="167" fill="#FFFFFF" font-size="13" font-weight="600" text-anchor="middle">[Brief]</text>

  <!-- Arrow down -->
  <line x1="300" y1="184" x2="300" y2="210" stroke="#64748B" stroke-width="2" marker-end="url(#sm-arrow)"/>

  <!-- PlannerAgent -->
  <rect x="200" y="215" width="200" height="44" rx="8" fill="url(#sm-orch)" filter="url(#sm-shadow)"/>
  <text x="300" y="242" fill="#FFFFFF" font-size="12" font-weight="600" text-anchor="middle">PlannerAgent</text>

  <!-- Arrow down -->
  <line x1="300" y1="259" x2="300" y2="285" stroke="#64748B" stroke-width="2" marker-end="url(#sm-arrow)"/>

  <!-- OrchestratorAgent -->
  <rect x="180" y="290" width="240" height="44" rx="8" fill="url(#sm-orch)" filter="url(#sm-shadow)"/>
  <text x="300" y="317" fill="#FFFFFF" font-size="12" font-weight="600" text-anchor="middle">OrchestratorAgent</text>

  <!-- Arrow down -->
  <line x1="300" y1="334" x2="300" y2="360" stroke="#64748B" stroke-width="2" marker-end="url(#sm-arrow)"/>

  <!-- RouterAgent -->
  <rect x="200" y="365" width="200" height="44" rx="8" fill="url(#sm-orch)" filter="url(#sm-shadow)"/>
  <text x="300" y="392" fill="#FFFFFF" font-size="12" font-weight="600" text-anchor="middle">RouterAgent</text>

  <!-- Arrow down -->
  <line x1="300" y1="409" x2="300" y2="435" stroke="#64748B" stroke-width="2" marker-end="url(#sm-arrow)"/>

  <!-- 52 Craft Agents -->
  <rect x="150" y="440" width="300" height="50" rx="8" fill="url(#sm-craft)" filter="url(#sm-shadow)"/>
  <text x="300" y="463" fill="#FFFFFF" font-size="12" font-weight="600" text-anchor="middle">52 Craft Agents (§1–§8)</text>
  <text x="300" y="480" fill="#CFFAFE" font-size="9" text-anchor="middle">Above-Line · Camera · Editorial · Sound · Performance · Distribution · Education · AI-Specialist</text>

  <!-- CritiqueMessages -->
  <rect x="150" y="510" width="300" height="38" rx="8" fill="#F59E0B" opacity="0.2" stroke="#F59E0B" stroke-width="1.5"/>
  <text x="300" y="534" fill="#92400E" font-size="11" font-weight="600" text-anchor="middle">CritiqueMessages (bi-directional bus)</text>

  <!-- Arrow down from Craft to Judge/Gate -->
  <line x1="300" y1="548" x2="300" y2="574" stroke="#64748B" stroke-width="2" marker-end="url(#sm-arrow)"/>

  <!-- JudgeAgent -->
  <rect x="200" y="579" width="200" height="44" rx="8" fill="url(#sm-gate)" filter="url(#sm-shadow)"/>
  <text x="300" y="606" fill="#FFFFFF" font-size="12" font-weight="600" text-anchor="middle">JudgeAgent</text>

  <!-- Arrow down -->
  <line x1="300" y1="623" x2="300" y2="649" stroke="#64748B" stroke-width="2" marker-end="url(#sm-arrow)"/>

  <!-- GateKeeperAgent -->
  <rect x="180" y="654" width="240" height="44" rx="8" fill="url(#sm-gate)" filter="url(#sm-shadow)"/>
  <text x="300" y="681" fill="#FFFFFF" font-size="12" font-weight="600" text-anchor="middle">GateKeeperAgent</text>

  <!-- MemoryAgent (side branch) -->
  <rect x="100" y="720" width="160" height="38" rx="8" fill="#8B5CF6" opacity="0.85"/>
  <text x="180" y="744" fill="#FFFFFF" font-size="11" font-weight="600" text-anchor="middle">MemoryAgent</text>
  <line x1="180" y1="720" x2="240" y2="698" stroke="#8B5CF6" stroke-width="1.5" stroke-dasharray="4"/>

  <!-- Creative Meta-Agents -->
  <rect x="80" y="780" width="200" height="60" rx="8" fill="url(#sm-meta)" opacity="0.85" filter="url(#sm-shadow)"/>
  <text x="180" y="800" fill="#FFFFFF" font-size="10" font-weight="600" text-anchor="middle">Creative Meta (§9.2)</text>
  <text x="180" y="815" fill="#D1FAE5" font-size="8" text-anchor="middle">Ideation · NarrativeArc</text>
  <text x="180" y="828" fill="#D1FAE5" font-size="8" text-anchor="middle">Style · Mood · Novelty · Emotion</text>

  <!-- Research Meta-Agents -->
  <rect x="300" y="780" width="200" height="60" rx="8" fill="url(#sm-meta)" opacity="0.85" filter="url(#sm-shadow)"/>
  <text x="400" y="800" fill="#FFFFFF" font-size="10" font-weight="600" text-anchor="middle">Research Meta (§9.3)</text>
  <text x="400" y="815" fill="#D1FAE5" font-size="8" text-anchor="middle">Web · Archive · Trend · Competitor</text>
  <text x="400" y="828" fill="#D1FAE5" font-size="8" text-anchor="middle">Citation · Interview · Benchmark</text>

  <!-- Optimization Meta-Agents -->
  <rect x="80" y="855" width="420" height="50" rx="8" fill="url(#sm-meta)" opacity="0.85" filter="url(#sm-shadow)"/>
  <text x="290" y="875" fill="#FFFFFF" font-size="10" font-weight="600" text-anchor="middle">Optimization Meta (§9.4)</text>
  <text x="290" y="892" fill="#D1FAE5" font-size="8" text-anchor="middle">PromptOpt · CostOpt · LatencyOpt · RetentionOpt · ROASOpt · A11yOpt · EvalHarness · SafetyRedTeam</text>


  <!-- RIGHT COLUMN: UI Surfaces -->
  <text x="1100" y="100" fill="#0F172A" font-size="16" font-weight="700" text-anchor="middle">UI SURFACES</text>
  <text x="1100" y="118" fill="#64748B" font-size="10" text-anchor="middle">(Pages / Panels / Dialogs)</text>

  <!-- S1: Brief Wizard -->
  <rect x="900" y="130" width="220" height="36" rx="6" fill="url(#sm-ui)" filter="url(#sm-shadow)"/>
  <text x="1010" y="153" fill="#FFFFFF" font-size="11" font-weight="600" text-anchor="middle">S1: Brief Wizard</text>

  <!-- S2: Template Selector -->
  <rect x="1150" y="130" width="220" height="36" rx="6" fill="url(#sm-ui)" filter="url(#sm-shadow)"/>
  <text x="1260" y="153" fill="#FFFFFF" font-size="11" font-weight="600" text-anchor="middle">S2: Template Selector</text>

  <!-- S3: DAG Canvas -->
  <rect x="900" y="190" width="220" height="36" rx="6" fill="url(#sm-ui)" filter="url(#sm-shadow)"/>
  <text x="1010" y="213" fill="#FFFFFF" font-size="11" font-weight="600" text-anchor="middle">S3: DAG Canvas</text>

  <!-- S11: Timeline View -->
  <rect x="1150" y="190" width="220" height="36" rx="6" fill="url(#sm-ui)" filter="url(#sm-shadow)"/>
  <text x="1260" y="213" fill="#FFFFFF" font-size="11" font-weight="600" text-anchor="middle">S11: Timeline View</text>

  <!-- S8: Agent Inspector -->
  <rect x="900" y="250" width="220" height="36" rx="6" fill="url(#sm-ui)" filter="url(#sm-shadow)"/>
  <text x="1010" y="273" fill="#FFFFFF" font-size="11" font-weight="600" text-anchor="middle">S8: Agent Inspector</text>

  <!-- S22: Notification Center -->
  <rect x="1150" y="250" width="220" height="36" rx="6" fill="url(#sm-ui)" filter="url(#sm-shadow)"/>
  <text x="1260" y="273" fill="#FFFFFF" font-size="11" font-weight="600" text-anchor="middle">S22: Notifications</text>

  <!-- S13: Router Config -->
  <rect x="900" y="310" width="220" height="36" rx="6" fill="url(#sm-ui)" filter="url(#sm-shadow)"/>
  <text x="1010" y="333" fill="#FFFFFF" font-size="11" font-weight="600" text-anchor="middle">S13: Router Config</text>

  <!-- S12: Budget Tracker -->
  <rect x="1150" y="310" width="220" height="36" rx="6" fill="url(#sm-ui)" filter="url(#sm-shadow)"/>
  <text x="1260" y="333" fill="#FFFFFF" font-size="11" font-weight="600" text-anchor="middle">S12: Budget Tracker</text>

  <!-- S4: Agent Node Cards -->
  <rect x="900" y="370" width="220" height="36" rx="6" fill="url(#sm-ui)" filter="url(#sm-shadow)"/>
  <text x="1010" y="393" fill="#FFFFFF" font-size="11" font-weight="600" text-anchor="middle">S4: Agent Node Cards</text>

  <!-- S9: Artifact Gallery -->
  <rect x="1150" y="370" width="220" height="36" rx="6" fill="url(#sm-ui)" filter="url(#sm-shadow)"/>
  <text x="1260" y="393" fill="#FFFFFF" font-size="11" font-weight="600" text-anchor="middle">S9: Artifact Gallery</text>

  <!-- S10: Artifact Viewer -->
  <rect x="900" y="430" width="220" height="36" rx="6" fill="url(#sm-ui)" filter="url(#sm-shadow)"/>
  <text x="1010" y="453" fill="#FFFFFF" font-size="11" font-weight="600" text-anchor="middle">S10: Artifact Viewer</text>

  <!-- S14: Prompt Lab -->
  <rect x="1150" y="430" width="220" height="36" rx="6" fill="url(#sm-ui)" filter="url(#sm-shadow)"/>
  <text x="1260" y="453" fill="#FFFFFF" font-size="11" font-weight="600" text-anchor="middle">S14: Prompt Lab</text>

  <!-- S15: Quality Dashboard -->
  <rect x="900" y="490" width="220" height="36" rx="6" fill="url(#sm-ui)" filter="url(#sm-shadow)"/>
  <text x="1010" y="513" fill="#FFFFFF" font-size="11" font-weight="600" text-anchor="middle">S15: Quality Dashboard</text>

  <!-- S6: Critique Feed -->
  <rect x="1150" y="490" width="220" height="36" rx="6" fill="url(#sm-ui)" filter="url(#sm-shadow)"/>
  <text x="1260" y="513" fill="#FFFFFF" font-size="11" font-weight="600" text-anchor="middle">S6: Critique Feed</text>

  <!-- S5: Gate Approval Dialog -->
  <rect x="900" y="570" width="220" height="36" rx="6" fill="url(#sm-ui)" filter="url(#sm-shadow)"/>
  <text x="1010" y="593" fill="#FFFFFF" font-size="11" font-weight="600" text-anchor="middle">S5: Gate Approval Dialog</text>

  <!-- S18: Compliance Checker -->
  <rect x="1150" y="570" width="220" height="36" rx="6" fill="url(#sm-ui)" filter="url(#sm-shadow)"/>
  <text x="1260" y="593" fill="#FFFFFF" font-size="11" font-weight="600" text-anchor="middle">S18: Compliance Checker</text>

  <!-- S7: Memory Panel -->
  <rect x="900" y="650" width="220" height="36" rx="6" fill="url(#sm-ui)" filter="url(#sm-shadow)"/>
  <text x="1010" y="673" fill="#FFFFFF" font-size="11" font-weight="600" text-anchor="middle">S7: Memory Panel</text>

  <!-- S24: Series Bible Editor -->
  <rect x="1150" y="650" width="220" height="36" rx="6" fill="url(#sm-ui)" filter="url(#sm-shadow)"/>
  <text x="1260" y="673" fill="#FFFFFF" font-size="11" font-weight="600" text-anchor="middle">S24: Series Bible Editor</text>

  <!-- S19: Creative Meta Panel -->
  <rect x="900" y="730" width="220" height="36" rx="6" fill="url(#sm-ui)" filter="url(#sm-shadow)"/>
  <text x="1010" y="753" fill="#FFFFFF" font-size="11" font-weight="600" text-anchor="middle">S19: Creative Meta Panel</text>

  <!-- S20: Research Panel -->
  <rect x="1150" y="730" width="220" height="36" rx="6" fill="url(#sm-ui)" filter="url(#sm-shadow)"/>
  <text x="1260" y="753" fill="#FFFFFF" font-size="11" font-weight="600" text-anchor="middle">S20: Research Panel</text>

  <!-- S21: Optimization Panel -->
  <rect x="900" y="790" width="220" height="36" rx="6" fill="url(#sm-ui)" filter="url(#sm-shadow)"/>
  <text x="1010" y="813" fill="#FFFFFF" font-size="11" font-weight="600" text-anchor="middle">S21: Optimization Panel</text>

  <!-- S16: Delivery Packager -->
  <rect x="1150" y="790" width="220" height="36" rx="6" fill="url(#sm-ui)" filter="url(#sm-shadow)"/>
  <text x="1260" y="813" fill="#FFFFFF" font-size="11" font-weight="600" text-anchor="middle">S16: Delivery Packager</text>

  <!-- S17: Analytics Panel -->
  <rect x="900" y="850" width="220" height="36" rx="6" fill="url(#sm-ui)" filter="url(#sm-shadow)"/>
  <text x="1010" y="873" fill="#FFFFFF" font-size="11" font-weight="600" text-anchor="middle">S17: Analytics Panel</text>

  <!-- S23: Team/Permissions -->
  <rect x="1150" y="850" width="220" height="36" rx="6" fill="url(#sm-ui)" filter="url(#sm-shadow)"/>
  <text x="1260" y="873" fill="#FFFFFF" font-size="11" font-weight="600" text-anchor="middle">S23: Team/Permissions</text>


  <!-- MAPPING LINES (Left → Right) -->
  <!-- Brief → S1, S2 -->
  <line x1="380" y1="150" x2="900" y2="148" stroke="#7C3AED" stroke-width="1.5" opacity="0.6"/>
  <line x1="380" y1="162" x2="1150" y2="148" stroke="#7C3AED" stroke-width="1.5" opacity="0.6"/>

  <!-- PlannerAgent → S3, S11, S8 -->
  <line x1="400" y1="230" x2="900" y2="208" stroke="#3B82F6" stroke-width="1.5" opacity="0.5"/>
  <line x1="400" y1="237" x2="1150" y2="208" stroke="#3B82F6" stroke-width="1.5" opacity="0.5"/>
  <line x1="400" y1="244" x2="900" y2="268" stroke="#3B82F6" stroke-width="1" opacity="0.3"/>

  <!-- OrchestratorAgent → S3, S11, S22, S12 -->
  <line x1="420" y1="305" x2="900" y2="208" stroke="#2563EB" stroke-width="1.5" opacity="0.5"/>
  <line x1="420" y1="312" x2="1150" y2="208" stroke="#2563EB" stroke-width="1" opacity="0.3"/>
  <line x1="420" y1="319" x2="1150" y2="268" stroke="#2563EB" stroke-width="1" opacity="0.3"/>
  <line x1="420" y1="326" x2="1150" y2="328" stroke="#2563EB" stroke-width="1" opacity="0.3"/>

  <!-- RouterAgent → S3, S13, S21 -->
  <line x1="400" y1="380" x2="900" y2="208" stroke="#3B82F6" stroke-width="1" opacity="0.3"/>
  <line x1="400" y1="387" x2="900" y2="328" stroke="#3B82F6" stroke-width="1.5" opacity="0.5"/>
  <line x1="400" y1="394" x2="900" y2="808" stroke="#3B82F6" stroke-width="1" opacity="0.3"/>

  <!-- Craft Agents → S3, S4, S8, S9, S10, S14, S15 -->
  <line x1="450" y1="453" x2="900" y2="208" stroke="#0891B2" stroke-width="1" opacity="0.3"/>
  <line x1="450" y1="458" x2="900" y2="388" stroke="#0891B2" stroke-width="1.5" opacity="0.5"/>
  <line x1="450" y1="463" x2="1150" y2="388" stroke="#0891B2" stroke-width="1.5" opacity="0.5"/>
  <line x1="450" y1="468" x2="900" y2="448" stroke="#0891B2" stroke-width="1" opacity="0.4"/>
  <line x1="450" y1="473" x2="1150" y2="448" stroke="#0891B2" stroke-width="1" opacity="0.4"/>
  <line x1="450" y1="478" x2="900" y2="508" stroke="#0891B2" stroke-width="1" opacity="0.4"/>

  <!-- CritiqueMessages → S6, S8 -->
  <line x1="450" y1="529" x2="1150" y2="508" stroke="#F59E0B" stroke-width="2" opacity="0.6"/>
  <line x1="450" y1="524" x2="900" y2="268" stroke="#F59E0B" stroke-width="1" opacity="0.3"/>

  <!-- JudgeAgent → S5, S6 -->
  <line x1="400" y1="595" x2="900" y2="588" stroke="#D97706" stroke-width="1.5" opacity="0.5"/>
  <line x1="400" y1="601" x2="1150" y2="508" stroke="#D97706" stroke-width="1" opacity="0.3"/>

  <!-- GateKeeperAgent → S5, S18 -->
  <line x1="420" y1="670" x2="900" y2="588" stroke="#D97706" stroke-width="2" opacity="0.6"/>
  <line x1="420" y1="676" x2="1150" y2="588" stroke="#D97706" stroke-width="1.5" opacity="0.5"/>

  <!-- MemoryAgent → S7, S24 -->
  <line x1="260" y1="738" x2="900" y2="668" stroke="#8B5CF6" stroke-width="1.5" opacity="0.5"/>
  <line x1="260" y1="744" x2="1150" y2="668" stroke="#8B5CF6" stroke-width="1.5" opacity="0.5"/>

  <!-- Creative Meta → S19 -->
  <line x1="280" y1="800" x2="900" y2="748" stroke="#059669" stroke-width="1.5" opacity="0.5"/>

  <!-- Research Meta → S20 -->
  <line x1="500" y1="800" x2="1150" y2="748" stroke="#059669" stroke-width="1.5" opacity="0.5"/>

  <!-- Optimization Meta → S21, S14, S12 -->
  <line x1="500" y1="875" x2="900" y2="808" stroke="#059669" stroke-width="2" opacity="0.6"/>
  <line x1="500" y1="870" x2="1150" y2="448" stroke="#059669" stroke-width="1" opacity="0.3"/>
  <line x1="500" y1="865" x2="1150" y2="328" stroke="#059669" stroke-width="1" opacity="0.3"/>

  <!-- COLOR LEGEND -->
  <rect x="600" y="950" width="400" height="130" rx="8" fill="#FFFFFF" stroke="#E2E8F0" filter="url(#sm-shadow)"/>
  <text x="800" y="975" fill="#0F172A" font-size="12" font-weight="700" text-anchor="middle">COLOR KEY</text>
  <rect x="625" y="990" width="14" height="14" rx="3" fill="#7C3AED"/>
  <text x="648" y="1002" fill="#475569" font-size="10">Brief entry point</text>
  <rect x="625" y="1012" width="14" height="14" rx="3" fill="#3B82F6"/>
  <text x="648" y="1024" fill="#475569" font-size="10">Orchestration layer (Planner, Orchestrator, Router)</text>
  <rect x="625" y="1034" width="14" height="14" rx="3" fill="#0891B2"/>
  <text x="648" y="1046" fill="#475569" font-size="10">52 Craft agents (§1–§8)</text>
  <rect x="625" y="1056" width="14" height="14" rx="3" fill="#F59E0B"/>
  <text x="648" y="1068" fill="#475569" font-size="10">Gate / Judge / Critique layer</text>
  <rect x="625" y="1078" width="14" height="14" rx="3" fill="#059669"/>
  <text x="648" y="1090" fill="#475569" font-size="10">Meta-agent clusters (Creative, Research, Optimization)</text>

</svg>
